<svg width="150" height="150" fill="none" xmlns="http://www.w3.org/2000/svg"><path fill="#fff" d="M0 0h150v150H0z"/><g clip-path="url(#50K__a)" stroke-width="3" stroke-linecap="round" stroke-linejoin="round"><path d="M74.942 92.173c1.444 4.821 4.398 7.26 5.303 10.337.689 2.341.78 4.814.855 7.253.215 6.567.44 11.43.655 17.988m.199-61.274c.216 9.627 1.984 14.415 5.17 19.617 3.486 5.69 9.86 9.04 16.291 9.982 2.008.298 6.589-.083 9.029-.752 3.884-1.067 7.112-3.557 9.627-3.557 2.116 0 4.39 1.936 5.17 2.903 3.336 4.119 4.315 7.592 4.456 13.257.133 5.268 0 13.613 0 19.824" stroke="#333330"/><path d="M106.046 87.219c7.722 0 13.983-6.24 13.983-13.936s-6.261-13.935-13.983-13.935c-7.723 0-13.984 6.24-13.984 13.935 0 7.697 6.26 13.936 13.984 13.936Zm-87.801 40.54c.075-4.308.15-8.41.224-12.727.066-3.648.133-7.328.954-10.876.822-3.548 2.482-7.013 5.253-9.395 1.453-1.248 3.278-2.191 5.195-2.1 2.233.107 4.141 1.571 6.208 2.415 3.585 1.472 7.643 1.075 11.477.496 2.382-.356 4.797-.786 6.93-1.886 3.435-1.77 5.775-5.078 7.767-8.378 2.49-4.102 4.689-8.46 5.643-13.166.648-3.192.714-6.467.64-9.717-.05-2.035-.15-4.094.281-6.087.432-1.993 1.47-3.945 3.22-4.995 3.112-1.87 6.764-.72 7.967 1.207 1.917 3.077 2.208 5.343 2.141 8.965-.207 11.206-1.792 22.743-8.796 33.221-4.108 6.137-2.988 7.824-2.988 18.278 0 5.061-.017 8.353-.2 14.762" stroke="#333330"/><path d="M43.946 87.12c7.723 0 13.983-6.24 13.983-13.936S51.67 59.25 43.947 59.25c-7.723 0-13.983 6.24-13.983 13.935 0 7.697 6.26 13.936 13.983 13.936Z" stroke="#333330"/><path d="M75.324 23.24a420.73 420.73 0 0 1-.1 16.814l.1-1.108m8.622 2.754 11.37-10.214M37.68 75.426s1.378 5.011 6.266 5.011 6.266-5.11 6.266-5.11m49.576.099s1.378 5.011 6.266 5.011 6.266-5.11 6.266-5.11M87 50.375l11.585-2.845M66.643 41.7c-3.792-3.408-7.577-6.807-11.37-10.214m8.324 18.889L52.004 47.53" stroke="#FC5757"/></g><defs><clipPath id="50K__a"><path fill="#fff" transform="translate(17 22)" d="M0 0h116v107H0z"/></clipPath></defs></svg>